<?xml version="1.0"?>
<svg width="50" height="50" viewBox="0 0 50 50" version="1.1" 
	xmlns="http://www.w3.org/2000/svg" 
	xmlns:xlink="http://www.w3.org/1999/xlink">
	<defs>
		<mask id="mask" x="0" y="0" width="50" height="50">
			<rect x="0" y="0" width="50" height="50" fill="black" />
			<rect rx="2" ry="2" x="14" y="16" width="25" height="25" fill="white" />
			<line x1="50" y1="26" x2="25" y2="51" stroke-width="6" stroke="black" />
			<line x1="28" y1="4" x2="3" y2="29" stroke-width="5" stroke="black" />
			<line x1="7" y1="27" x2="25" y2="52" stroke-width="5" stroke="black" />
			<rect rx="1" ry="1" x="12" y="20" width="6" height="15.5" fill="white" />
			<line x1="21" y1="12" x2="33.5" y2="12" stroke-width="3" stroke="white" stroke-linecap="round" />
			<line x1="27.25" y1="12" x2="27.25" y2="18" stroke-width="3" stroke="white" />
			<line x1="8" y1="21" x2="8" y2="34.5" stroke-width="4" stroke="white" stroke-linecap="round" />
			<line x1="8" y1="27.75" x2="14" y2="27.75" stroke-width="3" stroke="white" />
			<line x1="43" y1="20" x2="43" y2="32" stroke-width="3" stroke="white" stroke-linecap="round" />
			<line x1="37" y1="26" x2="43" y2="26" stroke-width="3" stroke="white" />
		</mask>
	</defs>
	<rect x="0" y="0" width="50" height="50" fill="white" mask="url(#mask)" />
</svg>
