<?xml version="1.0"?>
<svg width="50" height="50" viewBox="0 0 50 50" version="1.1" 
	xmlns="http://www.w3.org/2000/svg" 
	xmlns:xlink="http://www.w3.org/1999/xlink">
	<defs>
		<mask id="mask" x="0" y="0" width="50" height="50">
			<rect x="0" y="0" width="50" height="50" fill="black" />
			<polyline stroke-linejoin="round" 
				points="27 36, 36 25, 36 20, 31 20, 22 31, 27 36, 36 25" 
				stroke-width="11" stroke="white" 
				fill="white" />
			<polyline stroke-linejoin="round" 
				points="27 36, 36 25, 36 20, 31 20, 22 31, 27 36, 36 25" 
				stroke-width="6" stroke="black" 
				fill="black" />
			<polyline stroke-linejoin="round" 
				points="18 32, 27 21, 27 16, 22 16, 13 27, 18 32, 27 21" 
				stroke-width="15" stroke="black" 
				fill="black" />
			<polyline stroke-linejoin="round" 
				points="18 32, 27 21, 27 16, 22 16, 13 27, 18 32, 27 21" 
				stroke-width="11" stroke="white" 
				fill="white" />
			<line x1="34" y1="22" x2="50" y2="22" stroke-width="2.25" stroke="black" />
			<line x1="31" y1="25" x2="46" y2="40" stroke-width="2.25" stroke="black" />
			<line x1="31" y1="35" x2="36" y2="40" stroke-width="2.25" stroke="black" />
			<circle cx="28" cy="15" r="2.25" fill="black" />
		</mask>
	</defs>
	<rect x="0" y="0" width="50" height="50" fill="white" mask="url(#mask)" />
</svg>
